<svg width="24" height="24" viewBox="0 0 24 24" fill="none" xmlns="http://www.w3.org/2000/svg">
  <path fill-rule="evenodd" clip-rule="evenodd" d="M12 2C6.477 2 2 6.484 2 12.017C2 16.442 4.865 20.197 8.839 21.521C9.339 21.613 9.521 21.304 9.521 21.038C9.521 20.801 9.513 20.17 9.508 19.335C6.726 19.94 6.139 17.992 6.139 17.992C5.685 16.834 5.029 16.526 5.029 16.526C4.121 15.906 5.098 15.918 5.098 15.918C6.101 15.988 6.629 16.95 6.629 16.95C7.521 18.48 8.97 18.038 9.539 17.782C9.631 17.135 9.889 16.694 10.175 16.444C7.955 16.191 5.62 15.331 5.62 11.493C5.62 10.4 6.01 9.505 6.649 8.805C6.546 8.552 6.203 7.533 6.747 6.155C6.747 6.155 7.587 5.885 9.497 7.181C10.3 6.961 11.15 6.852 12 6.852C12.85 6.852 13.7 6.961 14.503 7.181C16.413 5.885 17.253 6.155 17.253 6.155C17.797 7.533 17.454 8.552 17.351 8.805C17.99 9.505 18.38 10.4 18.38 11.493C18.38 15.341 16.045 16.191 13.825 16.444C14.171 16.753 14.49 17.364 14.49 18.299C14.49 19.637 14.478 20.718 14.478 21.038C14.478 21.306 14.66 21.615 15.16 21.521C19.134 20.197 22 16.442 22 12.017C22 6.484 17.523 2 12 2Z" fill="currentColor"/>
</svg>