<svg width="512" height="512" viewBox="0 0 512 512" fill="none" xmlns="http://www.w3.org/2000/svg">
  <rect width="512" height="512" rx="128" fill="url(#gradient)" />
  <path d="M256 128C194.144 128 144 178.144 144 240C144 280.604 167.346 315.642 201.856 333.856C195.346 345.142 192 357.97 192 371.428C192 407.451 221.49 436.571 257.513 436.571C284.77 436.571 308.141 419.984 317.899 396.571H379.428C397.647 396.571 412.571 381.647 412.571 363.428C412.571 345.209 397.647 330.285 379.428 330.285H317.899C312.283 316.952 302.141 306.081 289.285 299.526C305.694 283.891 316 261.975 316 237.714C316 175.858 265.856 125.714 204 125.714L256 128Z" fill="white" fillOpacity="0.9"/>
  <defs>
    <linearGradient id="gradient" x1="0" y1="0" x2="512" y2="512" gradientUnits="userSpaceOnUse">
      <stop stopColor="#60A5FA"/>
      <stop offset="1" stopColor="#2563EB"/>
    </linearGradient>
  </defs>
</svg> 