<svg width="512" height="512" viewBox="0 0 512 512" fill="none" xmlns="http://www.w3.org/2000/svg">
  <rect width="512" height="512" rx="128" fill="url(#gradient)" />
  <path d="M256 128C194.144 128 144 178.144 144 240C144 301.856 194.144 352 256 352C317.856 352 368 301.856 368 240C368 178.144 317.856 128 256 128ZM307.2 240L256 291.2L204.8 240L256 188.8L307.2 240Z" fill="white" fillOpacity="0.9"/>
  <path d="M256 384C229.49 384 208 405.49 208 432C208 458.51 229.49 480 256 480C282.51 480 304 458.51 304 432C304 405.49 282.51 384 256 384Z" fill="white" fillOpacity="0.9"/>
  <defs>
    <linearGradient id="gradient" x1="0" y1="0" x2="512" y2="512" gradientUnits="userSpaceOnUse">
      <stop stopColor="#4ADE80"/>
      <stop offset="1" stopColor="#22C55E"/>
    </linearGradient>
  </defs>
</svg> 