<svg width="512" height="512" viewBox="0 0 512 512" fill="none" xmlns="http://www.w3.org/2000/svg">
  <rect width="512" height="512" rx="128" fill="url(#gradient)" />
  <path d="M256 128C194.144 128 144 178.144 144 240V272C144 333.856 194.144 384 256 384C317.856 384 368 333.856 368 272V240C368 178.144 317.856 128 256 128ZM256 192C282.51 192 304 213.49 304 240C304 260.51 290.51 277.49 272 283.51V320H240V283.51C221.49 277.49 208 260.51 208 240C208 213.49 229.49 192 256 192Z" fill="white" fillOpacity="0.9"/>
  <defs>
    <linearGradient id="gradient" x1="0" y1="0" x2="512" y2="512" gradientUnits="userSpaceOnUse">
      <stop stopColor="#C084FC"/>
      <stop offset="1" stopColor="#A855F7"/>
    </linearGradient>
  </defs>
</svg> 