<svg width="512" height="512" viewBox="0 0 512 512" fill="none" xmlns="http://www.w3.org/2000/svg">
  <rect width="512" height="512" rx="128" fill="url(#gradient)" />
  <path d="M256 128C194.144 128 144 178.144 144 240C144 301.856 194.144 352 256 352C317.856 352 368 301.856 368 240C368 178.144 317.856 128 256 128ZM256 320C211.888 320 176 284.112 176 240C176 195.888 211.888 160 256 160C300.112 160 336 195.888 336 240C336 284.112 300.112 320 256 320Z" fill="white" fillOpacity="0.9"/>
  <path d="M256 192C229.49 192 208 213.49 208 240C208 266.51 229.49 288 256 288C282.51 288 304 266.51 304 240C304 213.49 282.51 192 256 192ZM256 272C238.327 272 224 257.673 224 240C224 222.327 238.327 208 256 208C273.673 208 288 222.327 288 240C288 257.673 273.673 272 256 272Z" fill="white" fillOpacity="0.9"/>
  <path d="M256 384C229.49 384 208 405.49 208 432C208 458.51 229.49 480 256 480C282.51 480 304 458.51 304 432C304 405.49 282.51 384 256 384Z" fill="white" fillOpacity="0.9"/>
  <defs>
    <linearGradient id="gradient" x1="0" y1="0" x2="512" y2="512" gradientUnits="userSpaceOnUse">
      <stop stopColor="#F472B6"/>
      <stop offset="1" stopColor="#EC4899"/>
    </linearGradient>
  </defs>
</svg> 