<svg xmlns="http://www.w3.org/2000/svg" viewBox="0 0 400 400">
  <defs>
    <linearGradient id="grad1" x1="0%" y1="0%" x2="100%" y2="100%">
      <stop offset="0%" style="stop-color:#1a73e8;stop-opacity:0.2" />
      <stop offset="100%" style="stop-color:#1a73e8;stop-opacity:0" />
    </linearGradient>
  </defs>
  <circle cx="200" cy="200" r="180" fill="url(#grad1)" />
  <g fill="none" stroke="#1a73e8" stroke-width="2" stroke-linecap="round" stroke-linejoin="round">
    <path d="M200 120c-44.183 0-80 35.817-80 80s35.817 80 80 80 80-35.817 80-80-35.817-80-80-80zm0 140c-33.137 0-60-26.863-60-60s26.863-60 60-60 60 26.863 60 60-26.863 60-60 60z"/>
    <path d="M200 160c-22.091 0-40 17.909-40 40s17.909 40 40 40 40-17.909 40-40-17.909-40-40-40z"/>
    <path d="M200 180v40M180 200h40"/>
    <path d="M200 100v-20M200 320v-20M320 200h-20M100 200h-20"/>
    <path d="M272.426 127.574l14.142-14.142M127.574 272.426l14.142-14.142M272.426 272.426l-14.142-14.142M127.574 127.574l-14.142-14.142"/>
  </g>
</svg> 