<svg xmlns="http://www.w3.org/2000/svg" viewBox="0 0 400 400">
  <g fill="#E535AB">
    <path d="M57.468 302.66l-14.376-8.3 160.15-277.38 14.376 8.3z"/>
    <path d="M39.8 272.2h320.3v16.6H39.8z"/>
    <path d="M206.348 374.026l-160.21-92.5 8.3-14.376 160.21 92.5zM345.522 132.947l-160.21-92.5 8.3-14.376 160.21 92.5z"/>
    <path d="M54.482 132.883l-8.3-14.375 160.21-92.5 8.3 14.376z"/>
    <path d="M342.568 302.663l-160.15-277.38 14.376-8.3 160.15 277.38zM52.5 107.5h16.6v185H52.5zM330.9 107.5h16.6v185h-16.6z"/>
    <path d="M203.522 367l-7.25-12.558 139.34-80.45 7.25 12.557z"/>
    <circle cx="200" cy="200" r="35"/>
    <circle cx="200" cy="40" r="35"/>
    <circle cx="200" cy="360" r="35"/>
    <circle cx="40" cy="120" r="35"/>
    <circle cx="360" cy="120" r="35"/>
    <circle cx="40" cy="280" r="35"/>
    <circle cx="360" cy="280" r="35"/>
  </g>
</svg> 