<svg width="208" height="128" viewBox="0 0 208 128" fill="none" xmlns="http://www.w3.org/2000/svg">
<g clip-path="url(#clip0)">
<path fill-rule="evenodd" clip-rule="evenodd" d="M100.987 72.8258L82.9376 64.3127C81.4 63.5695 81.4 62.4209 82.9376 61.7453L89.2215 58.7725L100.92 64.3127C102.458 65.0559 104.931 65.0559 106.402 64.3127L118.101 58.7725L124.385 61.7453C125.922 62.4885 125.922 63.6371 124.385 64.3127L106.335 72.8258C104.931 73.5015 102.458 73.5015 100.987 72.8258Z" fill="#FF6F3D"/>
<path fill-rule="evenodd" clip-rule="evenodd" d="M100.987 62.3533L82.9376 53.8402C81.4 53.097 81.4 51.9484 82.9376 51.2728L89.0878 48.3675L100.987 53.9753C102.525 54.7185 104.998 54.7185 106.469 53.9753L118.368 48.3675L124.518 51.2728C126.056 52.016 126.056 53.1646 124.518 53.8402L106.469 62.3533C104.931 63.0965 102.458 63.0965 100.987 62.3533Z" fill="#95C038"/>
<path fill-rule="evenodd" clip-rule="evenodd" d="M100.987 52.1511L82.9376 43.6379C81.4 42.8947 81.4 41.7461 82.9376 41.0705L100.987 32.5574C102.525 31.8142 104.998 31.8142 106.469 32.5574L124.518 41.0705C126.056 41.8137 126.056 42.9623 124.518 43.6379L106.469 52.1511C104.931 52.8267 102.458 52.8267 100.987 52.1511Z" fill="#5DC0E8"/>
<path d="M53 90.3997C53 88.2133 53.622 86.5633 54.9076 85.4907C56.1517 84.3769 57.6446 83.8406 59.3449 83.8406C61.0452 83.8406 62.4966 84.3769 63.7408 85.4907C64.9849 86.6046 65.6069 88.2133 65.6069 90.441C65.6069 92.6273 64.9849 94.2774 63.7408 95.3499C62.4966 96.4637 61.0037 96.9999 59.3449 96.9999C57.6446 96.9999 56.1932 96.4637 54.9076 95.3499C53.622 94.2361 53 92.5861 53 90.3997ZM55.737 90.3997C55.737 91.926 56.0273 92.9985 56.5664 93.6998C57.147 94.4011 57.7691 94.8549 58.4326 95.0199C58.5985 95.0611 58.7229 95.1024 58.8887 95.1024C59.0132 95.1024 59.179 95.1436 59.3034 95.1436C59.4693 95.1436 59.5937 95.1436 59.7596 95.1024C59.9255 95.1024 60.0499 95.0611 60.2158 95.0199C60.8793 94.8549 61.5014 94.4011 62.0405 93.6998C62.5796 92.9985 62.8698 91.8848 62.8698 90.441C62.8698 88.9559 62.5796 87.8833 62.0405 87.182C61.5014 86.4808 60.8793 86.027 60.2158 85.862C60.0499 85.8207 59.884 85.7795 59.7596 85.7795C59.5937 85.7795 59.4693 85.7382 59.3034 85.7382C59.1376 85.7382 59.0132 85.7382 58.8887 85.7795C58.7643 85.7795 58.5985 85.8207 58.4326 85.862C57.7691 86.027 57.147 86.4808 56.5664 87.182C56.0273 87.8009 55.737 88.9146 55.737 90.3997Z" fill="#333333"/>
<path d="M66.9755 83.9631H70.376L74.8548 92.0484L75.5183 93.8223H75.5598L75.5183 91.5122V83.9631H78.1309V96.8337H74.7304L70.2517 88.4182L69.5881 86.9744H69.5466L69.5881 89.2433V96.8337H66.9755V83.9631Z" fill="#333333"/>
<path d="M80.8267 83.9631H83.4393V94.6473H88.5816V96.8337H80.8267V83.9631Z" fill="#333333"/>
<path d="M86.9636 83.9631H89.991L92.645 88.4595L93.0597 89.367H93.1426L93.5573 88.4595L96.2529 83.9631H99.0314L94.3453 91.5946V96.8337H91.7327V91.5534L86.9636 83.9631Z" fill="#333333"/>
<path d="M98.7001 90.3987C98.7001 88.2123 99.3222 86.5623 100.608 85.4897C101.852 84.3759 103.345 83.8396 105.045 83.8396C106.745 83.8396 108.197 84.3759 109.441 85.4897C110.685 86.6034 111.307 88.2123 111.307 90.4399C111.307 92.6262 110.685 94.2764 109.441 95.3489C108.197 96.4627 106.704 96.9989 105.045 96.9989C103.345 96.9989 101.893 96.4627 100.608 95.3489C99.3637 94.2351 98.7001 92.585 98.7001 90.3987ZM101.437 90.3987C101.437 91.9249 101.727 92.9975 102.267 93.6988C102.847 94.4001 103.428 94.8538 104.133 95.0189C104.299 95.0601 104.423 95.1013 104.589 95.1013C104.713 95.1013 104.879 95.1426 105.004 95.1426C105.169 95.1426 105.294 95.1426 105.46 95.1013C105.626 95.1013 105.75 95.0601 105.916 95.0189C106.58 94.8538 107.202 94.4001 107.741 93.6988C108.28 92.9975 108.57 91.8838 108.57 90.4399C108.57 88.9549 108.28 87.8823 107.741 87.181C107.202 86.4797 106.58 86.026 105.916 85.861C105.75 85.8197 105.584 85.7784 105.46 85.7784C105.294 85.7784 105.169 85.7372 105.004 85.7372C104.838 85.7372 104.713 85.7372 104.589 85.7784C104.464 85.7784 104.299 85.8197 104.133 85.861C103.469 86.026 102.847 86.4797 102.267 87.181C101.727 87.7997 101.437 88.9136 101.437 90.3987Z" fill="#333333"/>
<path d="M113.131 83.9631H120.347V86.1082H115.744V89.2433H120.14V91.4297H115.744V96.8337H113.131V83.9631Z" fill="#333333"/>
<path d="M122.296 83.9631H129.512V86.1082H124.909V89.2433H129.305V91.4297H124.909V96.8337H122.296V83.9631Z" fill="#333333"/>
<path d="M131.047 96.8337V83.9631H133.659V96.8337H131.047Z" fill="#333333"/>
<path d="M145.171 84.2519V86.4796C144.715 86.3145 144.258 86.1908 143.761 86.1082C143.263 86.0258 142.683 85.9845 142.102 85.9845C140.733 85.9845 139.697 86.397 138.95 87.2633C138.204 88.0883 137.831 89.1609 137.831 90.4397C137.831 91.6772 138.162 92.7086 138.867 93.5336C139.572 94.3586 140.568 94.8124 141.853 94.8124C142.309 94.8124 142.766 94.7711 143.305 94.7299C143.844 94.6474 144.383 94.5236 144.963 94.2761L145.129 96.4625C145.046 96.5037 144.922 96.545 144.798 96.5863C144.632 96.6275 144.466 96.6687 144.258 96.71C143.927 96.7925 143.512 96.8338 143.014 96.9162C142.517 96.9575 142.019 96.9987 141.48 96.9987C141.397 96.9987 141.314 96.9987 141.273 96.9987C141.19 96.9987 141.107 96.9987 141.065 96.9987C139.572 96.9162 138.204 96.3387 136.96 95.3487C135.716 94.3174 135.094 92.7086 135.094 90.5635C135.094 88.4596 135.716 86.8095 136.918 85.6545C138.121 84.4994 139.78 83.9219 141.812 83.9219C142.351 83.9219 142.848 83.9219 143.263 83.9631C143.719 84.0044 144.134 84.087 144.59 84.1694C144.673 84.2107 144.798 84.2107 144.88 84.2519C144.963 84.2107 145.046 84.2519 145.171 84.2519Z" fill="#333333"/>
<path d="M147.245 83.9636H155V85.9848H149.899V89.2025H154.503V91.1826H149.899V94.8128H155V96.8341H147.245V83.9636Z" fill="#333333"/>
</g>
<defs>
<clipPath id="clip0">
<rect width="208" height="128" fill="white"/>
</clipPath>
</defs>
</svg>
