<svg width="160" height="160" viewBox="0 0 160 160" fill="none" xmlns="http://www.w3.org/2000/svg">
  <!-- Fond subtil -->
  <circle cx="80" cy="80" r="76" fill="url(#gradient)" fill-opacity="0.1"/>
  
  <!-- Icône principale -->
  <path d="M55 80C55 66.7452 65.7452 56 79 56H81C94.2548 56 105 66.7452 105 80V80C105 93.2548 94.2548 104 81 104H79C65.7452 104 55 93.2548 55 80V80Z" 
    stroke="#1a73e8" stroke-width="4" stroke-linecap="round"/>
  
  <!-- Éléments graphiques -->
  <path d="M45 75L55 80L45 85M115 75L105 80L115 85" 
    stroke="#1a73e8" stroke-width="4" stroke-linecap="round"/>
  
  <!-- Points de connexion -->
  <circle cx="70" cy="80" r="4" fill="#1a73e8"/>
  <circle cx="80" cy="80" r="4" fill="#1a73e8"/>
  <circle cx="90" cy="80" r="4" fill="#1a73e8"/>
  
  <!-- Gradient définition -->
  <defs>
    <linearGradient id="gradient" x1="0" y1="0" x2="160" y2="160" gradientUnits="userSpaceOnUse">
      <stop offset="0%" stop-color="#1a73e8"/>
      <stop offset="100%" stop-color="#8ab4f8"/>
    </linearGradient>
  </defs>
</svg> 